<svg preserveAspectRatio="none" width="100%" height="100%" overflow="visible" style="display: block;" viewBox="0 0 296 350" fill="none" xmlns="http://www.w3.org/2000/svg">
<g id="2 51" clip-path="url(#clip0_0_17)">
<path id="Vector" d="M274.337 232.186C276.497 232.186 278.247 230.433 278.247 228.269C278.247 226.105 276.497 224.352 274.337 224.352C272.178 224.352 270.427 226.105 270.427 228.269C270.427 230.433 272.178 232.186 274.337 232.186Z" fill="var(--fill-0, white)"/>
<path id="Vector_2" d="M8.10099 148.503C10.2165 148.503 11.9315 146.785 11.9315 144.665C11.9315 142.545 10.2165 140.827 8.10099 140.827C5.98547 140.827 4.27051 142.545 4.27051 144.665C4.27051 146.785 5.98547 148.503 8.10099 148.503Z" fill="var(--fill-0, white)"/>
<g id="Group">
<g id="Group_2">
<path id="Vector_3" d="M116.4 197.724C114.683 198.129 113.486 197.818 112.635 196.568C117.8 196.192 122.251 196.705 127.12 197.898C147.398 202.849 171.491 215.273 171.044 237.911C179.549 224.771 172.97 208.111 160.808 198.845C153.046 192.932 144.837 188.747 136.245 183.767C138.179 183.081 140.689 183.218 142.261 184.1L158.124 192.932C168.325 198.613 188.234 219.335 179.484 227.488C178.611 235.952 174.831 242.537 167.928 247.835C174.658 246.158 179.931 242.616 184.628 238.207C197.533 226.079 192.281 208.768 179.275 196.922C168.736 187.547 156.573 180.696 143.17 176.207L141.987 175.08C141.627 174.733 142.514 173.554 142.954 173.236C156.566 176.742 168.613 182.466 179.6 190.865L189.244 200.76C193.948 205.588 196.703 212.65 196.985 219.588C197.482 231.818 190.564 242.175 180.025 248.138C153.154 263.346 115.996 260.317 88.1731 247.126C79.8124 243.158 72.3246 238.402 66.0847 231.623C61.6988 226.86 57.1109 219.314 59.9387 215.548C60.4653 214.847 62.2831 214.507 63.3652 214.833C63.6249 219.979 65.3273 224.445 69.266 227.561C67.2894 217.044 75.1307 209.065 85.0712 205.631C107.203 197.984 134.442 204.475 155.297 215.476C146.777 206.434 132.234 202.307 120.245 198.801C119.033 198.447 117.749 197.399 116.386 197.717L116.4 197.724Z" fill="var(--fill-0, white)"/>
<path id="Vector_4" d="M87.7475 270.451C83.578 268.47 80.5266 267.191 76.8476 264.524C79.3075 262.84 80.844 263.548 83.0586 264.531C109.014 276.074 136.606 282.095 165.028 280.7C188.487 279.543 213.396 273.038 227.65 253.87C232.454 246.693 235.47 239.125 235.737 230.372C235.881 230.018 236.891 228.522 237.23 228.804L239.105 230.401C239.69 243.693 234.445 255.793 224.743 264.639C210.099 278.235 188.227 284.075 168.245 285.427C140.364 287.306 113.118 282.492 87.7475 270.451Z" fill="var(--fill-0, white)"/>
<path id="Vector_5" d="M22.7448 231.095C29.8719 245.276 43.4986 254.217 42.9865 255.453C42.7628 255.988 42.1352 256.588 41.2696 257.339C35.3544 252.966 30.2398 248.81 25.2912 243.585C8.56986 223.947 10.3228 198.57 30.6366 182.857C53.0568 165.503 88.4544 161.224 115.686 167.743L115.52 170.063C115.484 170.54 114.07 170.62 113.378 170.54C85.0207 167.064 49.183 170.36 28.7538 191.06C18.0703 201.88 15.899 217.471 22.752 231.102L22.7448 231.095Z" fill="var(--fill-0, white)"/>
<path id="Vector_6" d="M158.795 207.034C136.267 191.949 102.954 184.23 77.2804 193.532C70.3552 196.04 65.7096 201.064 59.5491 206.361C60.1262 199.762 65.5726 194.79 71.2137 191.732C93.3886 179.698 127.228 184.859 149.518 196.336C157.526 200.464 164.66 206.224 168.267 214.081C163.542 212.946 161.803 209.05 158.788 207.026L158.795 207.034Z" fill="var(--fill-0, white)"/>
<path id="Vector_7" d="M207.206 200.565C203.289 193.763 198.694 188.798 193.399 183.514C171.051 163.754 141.396 153.57 111.913 149.732C111.12 149.63 109.807 148.308 110.031 147.65C110.254 146.992 111.805 146.356 112.692 146.392C139.037 147.44 170.835 158.781 191.192 175.622C199.012 181.801 205.013 189.065 209.392 198.028L209.428 200.464C209.436 200.97 207.697 200.782 207.199 200.558L207.206 200.565Z" fill="var(--fill-0, white)"/>
<path id="Vector_8" d="M187.131 301.682L163.412 302C163.239 301.639 162.756 300.236 163.087 300.135L165.316 299.434C184.014 299.094 201.94 295.892 218.943 288.549C233.897 281.892 245.699 271.159 252.343 256.19L254.485 255.706C254.968 255.597 255.062 257.39 255.019 257.932C251.051 270.566 242.698 280.389 231.567 287.458C218.056 295.553 203.34 300.294 187.131 301.682Z" fill="var(--fill-0, white)"/>
<path id="Vector_9" d="M123.78 301.574C108.148 300.569 93.8503 296.955 79.3796 292.062C63.6898 286.757 49.587 279.348 36.6167 269.07C35.9964 268.579 35.5924 267.09 36.018 266.627C36.6817 265.911 38.1028 266.07 39.0261 266.699C50.1569 274.223 61.67 280.027 74.2218 284.921C90.7051 291.231 107.196 295.733 124.516 298.646L125.713 300.164C125.944 300.46 124.162 301.595 123.773 301.574H123.78Z" fill="var(--fill-0, white)"/>
<path id="Vector_10" d="M124.775 268.412C118.752 267.82 113.003 266.743 107.268 263.288C110.961 262.543 114.222 263.432 118.002 264.17C143.192 269.084 168.887 267.227 192.786 257.975C198.947 255.59 204.227 252.41 211.03 251.608C206.254 257.144 200.39 259.84 194.243 262.29C178.359 268.615 161.623 270.769 144.498 270.342L124.783 268.412H124.775Z" fill="var(--fill-0, white)"/>
<path id="Vector_11" d="M80.1515 257.599C80.7358 257.903 82.0054 259.284 81.6952 259.681L80.2813 261.51C70.0234 257.043 60.9342 251.702 52.5735 244.488C45.1361 237.484 39.055 229.201 37.7782 218.988C36.559 209.231 41.2191 198.895 51.5058 196.105C45.9513 202.531 41.1614 208.848 42.1424 217.435C42.9504 224.453 46.5861 230.495 51.0874 235.88C58.9792 245.305 68.9774 251.846 80.1515 257.592V257.599Z" fill="var(--fill-0, white)"/>
<path id="Vector_12" d="M196.184 250.755C192.296 252.735 189.194 255.164 184.151 253.769L198.427 244.821C209.234 238.316 215.935 227.38 214.932 214.522C215.026 213.965 215.178 212.989 215.531 213.011L217.652 213.141C221.742 231.081 212.444 242.493 196.191 250.755H196.184Z" fill="var(--fill-0, white)"/>
</g>
<path id="Vector_13" d="M2.97924 188.755L0.476081 189.289C-1.70246 189.752 3.08744 172.998 23.9928 163.97L25.7457 163.211C26.1424 163.038 27.2894 164.064 27.0874 164.447L25.9333 166.601C16.4544 172.073 8.52658 178.925 2.97202 188.755H2.97924Z" fill="var(--fill-0, white)"/>
<path id="Vector_14" d="M205.85 150.129C208.121 150.129 209.962 148.285 209.962 146.009C209.962 143.734 208.121 141.889 205.85 141.889C203.579 141.889 201.738 143.734 201.738 146.009C201.738 148.285 203.579 150.129 205.85 150.129Z" fill="var(--fill-0, white)"/>
<g id="Group_3">
<path id="Vector_15" d="M112.144 127.94C114.224 127.94 115.91 126.25 115.91 124.167C115.91 122.083 114.224 120.394 112.144 120.394C110.065 120.394 108.379 122.083 108.379 124.167C108.379 126.25 110.065 127.94 112.144 127.94Z" fill="var(--fill-0, white)"/>
<g id="Group_4">
<path id="Vector_16" d="M90.0487 136.266L42.633 150.158C39.8773 150.968 36.0324 148.893 35.2461 146.11L14.1244 71.2374C12.9342 67.0308 16.4472 64.0024 19.9098 63.0339L54.4202 53.363C56.1154 52.886 59.3544 53.1607 60.7033 54.0641L74.6691 63.3447C75.5419 63.9301 77.4608 65.766 77.7421 66.7779L94.6871 127.094C96.0938 131.149 94.1461 135.052 90.0487 136.252V136.266ZM90.1929 127.954L73.9549 70.1027L62.8746 73.0155C61.7565 73.3118 59.037 72.3867 58.7412 71.3603L54.9612 58.0611L21.3814 67.4573C19.6068 67.956 18.3516 69.3221 18.9432 71.447L39.0045 143.067C39.2281 143.87 40.0938 145.236 40.7214 145.424C41.3489 145.612 42.6258 145.445 43.5131 145.185L88.2236 132.19C89.8178 131.727 90.6402 129.595 90.1857 127.969L90.1929 127.954ZM70.7448 66.2141L59.917 58.9285L62.5645 68.7728L70.7376 66.2141H70.7448Z" fill="var(--fill-0, white)"/>
<path id="Vector_17" d="M48.3174 113.376L52.3715 127.159L57.2984 126.082L50.7195 102.368C51.7078 99.9825 55.8052 98.8116 58.6907 99.6066L65.688 123.617L70.5717 122.071L60.1551 84.739C62.4202 82.7514 65.4211 81.8479 68.6168 82.4622L78.7232 119.158C79.6465 119.635 80.8584 120.365 81.1542 121.008C81.5076 121.782 80.0938 123.639 79.192 123.82L45.5906 133.657C45.0207 133.707 42.4887 133.165 42.77 132.529L44.0902 129.544L40.5122 116.035C41.4716 113.954 45.0784 113.021 48.3318 113.376H48.3174Z" fill="var(--fill-0, white)"/>
</g>
<g id="Group_5">
<path id="Vector_18" d="M188.956 135.76C187.657 140.119 183.993 141.976 179.867 140.747L136.05 127.643C132.177 126.487 129.234 123.097 130.474 118.804L149.244 53.8545C150.283 50.2479 153.197 47.0242 157.49 48.2747L192.072 58.3791C194.359 59.0441 196.523 60.9956 197.454 63.0917L205.345 80.8938L188.956 135.76ZM184.584 134.741L200.029 82.8019L188.653 79.1519C186.756 78.5448 185.876 75.9138 186.842 74.2948L190.218 62.5641L154.489 52.3295L134.918 119.808L135.906 122.772L181.345 136.526C182.593 136.216 183.755 135.601 184.577 134.748L184.584 134.741ZM199.3 77.8798L193.926 66.1707L191.019 75.5669L199.3 77.887V77.8798Z" fill="var(--fill-0, white)"/>
<path id="Vector_19" d="M187.527 100.438C187.527 111.395 178.662 120.278 167.726 120.278C156.79 120.278 147.924 111.395 147.924 100.438C147.924 89.4805 156.79 80.5975 167.726 80.5975C178.662 80.5975 187.527 89.4805 187.527 100.438ZM165.1 100.402L169.94 85.5774C164.566 84.7173 159.589 86.9001 156.112 91.085C151.675 96.4336 151.307 103.849 155.304 109.328C159.178 114.648 166.312 117.452 172.66 114.098L165.1 100.394V100.402ZM176.786 112.364C181.98 108.172 183.877 103.025 182.918 97.6912C182.052 92.9064 179.304 88.5408 174.059 86.6833L169.89 100.178L176.786 112.364Z" fill="var(--fill-0, white)"/>
</g>
</g>
<g id="Group_6">
<path id="Vector_20" d="M263.235 211.725C260.84 214.912 257.335 217.883 253.555 215.006L215.877 186.326C213.901 184.823 213.54 180.291 215.041 178.231L254.218 124.42C257.046 120.531 261.187 120.083 264.909 122.808L294.132 144.181L296 168.184L263.235 211.725ZM290.568 167.714L281.19 160.602C280.238 159.879 280.238 157.061 280.858 156.316L288.527 145.879L259.708 124.918L220.105 178.968C219.47 179.835 218.77 181.389 218.95 182.163C219.102 182.806 220.076 183.832 220.768 184.36L255.235 210.503C256.981 211.826 258.431 210.38 259.448 209.021L290.568 167.714ZM291.455 162.922L290.604 150.678L284.92 157.993L291.455 162.922Z" fill="var(--fill-0, white)"/>
<path id="Vector_21" d="M269.591 179.98L244.307 160.682C244.242 159.85 244.27 158.325 244.458 157.639C244.667 156.836 246.867 156.873 247.56 157.4L272.296 176.178C273.039 176.742 273.796 178.513 273.486 179.308C273.046 180.428 270.911 180.84 269.598 179.98H269.591Z" fill="var(--fill-0, white)"/>
<path id="Vector_22" d="M276.509 171.256L251.369 152.167C250.9 151.286 250.626 149.63 251.044 148.944C251.463 148.257 253.367 148.134 254.204 148.539L278.976 167.281C279.358 168.285 279.719 169.333 279.812 170.034C279.935 170.88 277.482 171.625 276.509 171.256Z" fill="var(--fill-0, white)"/>
<path id="Vector_23" d="M266.193 185.466C266.489 186.579 266.453 188.668 265.767 188.95C265.082 189.232 263.776 188.921 262.803 188.538L237.93 169.962C237.67 169.088 237.497 167.498 237.793 166.804C238.088 166.11 239.978 166.088 240.851 166.29L266.193 185.473V185.466Z" fill="var(--fill-0, white)"/>
<path id="Vector_24" d="M258.236 193.402C259.109 194.457 259.83 195.845 259.549 196.582C259.138 197.666 257.039 198.187 256.043 197.565L231.286 178.758C230.94 178.028 230.709 176.07 231.214 175.513C231.719 174.957 233.104 175.022 234.128 175.231L258.236 193.402Z" fill="var(--fill-0, white)"/>
</g>
</g>
</g>
<defs>
<clipPath id="clip0_0_17">
<rect width="296" height="350" fill="white"/>
</clipPath>
</defs>
</svg>
