<svg preserveAspectRatio="none" width="100%" height="100%" overflow="visible" style="display: block;" viewBox="0 0 296 350" fill="none" xmlns="http://www.w3.org/2000/svg">
<g id="3 6">
<path id="Vector" d="M188.141 236.415C192.676 241.117 189.824 248.068 192.012 259.496L196.546 283.211C196.758 284.298 196.078 286.426 195.241 286.849C194.26 287.347 191.552 286.298 191.363 285.204L185.901 254.348L185.44 241.291C183.592 238.113 180.114 235.169 179.329 231.539C177.549 223.312 183.456 210.329 174.984 199.559C173.776 198.027 170.947 195.974 170.902 193.936L170.442 172.862C170.381 170.047 172.486 168.235 175.225 168.235L209.387 168.273L208.837 151.6C208.776 149.788 209.961 146.286 210.504 144.482C197.135 140.497 208.233 131.236 208.12 111.808C208.075 104.192 212.269 98.3729 219.233 95.4745C208.882 95.1499 202.076 86.8776 203.065 77.0201C203.88 68.8836 210.044 63.2756 217.566 62.166C225.495 61.0037 233.04 66.0305 235.416 73.2311C238.019 81.1035 235.062 89.2476 227.766 93.5347C237.008 93.4668 243.957 98.5917 246.5 106.992L251.713 131.327C251.404 136.157 248.137 139.833 243.187 139.116L247.654 168.258L293.012 168.235C294.137 168.235 295.713 169.481 295.955 170.341C296.234 171.33 294.959 173.685 293.556 173.685L175.987 173.7L176.085 193.739L192.457 207.046L198.893 212.586L208.225 243.487C208.391 244.355 207.697 246.181 206.95 246.582C206.068 247.057 204.015 245.993 203.668 244.898L194.238 214.949L184.513 207.401C186.489 219.515 180.914 228.912 188.141 236.407V236.415ZM230.957 78.9222C230.957 72.6801 225.903 67.6231 219.663 67.6231C213.424 67.6231 208.369 72.6801 208.369 78.9222C208.369 85.1642 213.424 90.2212 219.663 90.2212C225.903 90.2212 230.957 85.1642 230.957 78.9222ZM223.322 162.756C223.428 156.461 222.643 144.294 226.257 142.716C227.434 142.203 228.988 143.833 229.222 145.184L233.266 168.235L242.501 168.062L233.87 119.333C234.149 118.329 235.22 116.722 236.005 116.457C236.79 116.193 238.132 117.952 238.283 118.775L240.886 132.262C241.09 133.297 243.142 134.791 244.123 134.489C244.96 134.225 246.545 132.27 246.409 131.236C245.451 124.103 243.806 116.065 241.603 108.978C239.023 100.675 231.365 97.6181 223.609 99.6333C217.053 101.332 213.16 105.49 213.393 112.616C213.899 127.779 205.841 137.863 211.123 139.576C212.111 139.893 214.578 138.965 214.925 137.81L219.806 121.718C220.086 120.797 221.557 119.62 222.289 119.907C225.118 121.009 222.123 134.663 219.203 139.924C217.075 143.765 214.291 146.988 214.352 151.789L214.555 168.175L223.217 168.25L223.307 162.763L223.322 162.756Z" fill="var(--fill-0, white)"/>
<path id="Vector_2" d="M80.5846 253.948L81.4975 239.955L88.1821 230.497L87.3069 219.923C86.9599 215.764 86.9674 211.779 87.6238 207.673L78.1779 214.835L68.7018 244.4C68.4226 245.268 67.5022 246.536 66.8231 246.74C66.1441 246.944 64.5673 246.385 64.1599 245.804C63.6695 245.102 63.9109 243.359 64.2429 242.279L73.553 211.899L95.8173 193.687L96.0286 173.7L3.2593 173.715C1.39576 173.723 0 172.477 0 171.028C0 169.579 1.41085 168.182 3.2593 168.182H96.7302C99.5142 168.182 101.468 170.273 101.446 172.839L101.265 192.577C101.234 195.521 99.1219 197.777 97.3489 199.876C88.4386 210.428 94.7535 223.704 93.2521 231.237C92.4901 235.041 88.8838 237.751 87.0881 241.034L86.047 254.235L80.9317 283.898C80.7506 284.97 79.717 286.487 78.9248 286.887C78.0043 287.355 75.3486 286.192 75.1449 285.105L80.5922 253.948H80.5846Z" fill="var(--fill-0, white)"/>
</g>
</svg>
